<?xml version="1.0" encoding="UTF-8" standalone="no"?>
<!DOCTYPE svg PUBLIC "-//W3C//DTD SVG 1.1//EN" "http://www.w3.org/Graphics/SVG/1.1/DTD/svg11.dtd">
<svg width="100%" height="100%" viewBox="0 0 590 90" version="1.1" xmlns="http://www.w3.org/2000/svg" xmlns:xlink="http://www.w3.org/1999/xlink" xml:space="preserve" xmlns:serif="http://www.serif.com/" style="fill-rule:evenodd;clip-rule:evenodd;stroke-linejoin:round;stroke-miterlimit:2;">
    <g id="Artboard1" transform="matrix(1,0,0,1.11239,-33.6452,-224.897)">
        <rect x="33.645" y="202.175" width="589.956" height="80.848" style="fill:none;"/>
        <g transform="matrix(0.191843,0,0,0.17246,24.3257,194.447)">
            <g transform="matrix(0.515387,-0.307308,0.317367,0.532256,2612.46,198.706)">
                <path d="M497.9,142.1L451.8,188.2C447.1,192.9 439.5,192.9 434.8,188.2L323.8,77.2C319.1,72.5 319.1,64.9 323.8,60.2L369.9,14.1C388.6,-4.6 419,-4.6 437.8,14.1L497.9,74.2C516.7,92.9 516.7,123.3 497.9,142.1ZM284.2,99.8L21.6,362.4L0.4,483.9C-2.5,500.3 11.8,514.5 28.2,511.7L149.7,490.4L412.3,227.8C417,223.1 417,215.5 412.3,210.8L301.3,99.8C296.5,95.1 288.9,95.1 284.2,99.8ZM124.1,339.9C118.6,334.4 118.6,325.6 124.1,320.1L278.1,166.1C283.6,160.6 292.4,160.6 297.9,166.1C303.4,171.6 303.4,180.4 297.9,185.9L143.9,339.9C138.4,345.4 129.6,345.4 124.1,339.9ZM88,424L136,424L136,460.3L71.5,471.6L40.4,440.5L51.7,376L88,376L88,424Z" style="fill:rgb(73,94,197);fill-rule:nonzero;"/>
            </g>
            <g transform="matrix(2.51489,0,0,2.51489,-486.781,-317.623)">
                <g transform="matrix(0.270916,0,0,0.270916,1360.22,166.964)">
                    <path d="M224.3,273L88.3,409C78.9,418.4 63.7,418.4 54.4,409L31.8,386.4C22.4,377 22.4,361.8 31.8,352.5L128.2,256.1L31.8,159.7C22.4,150.3 22.4,135.1 31.8,125.8L54.3,103C63.7,93.6 78.9,93.6 88.2,103L224.2,239C233.7,248.4 233.7,263.6 224.3,273Z" style="fill:rgb(63,207,142);fill-rule:nonzero;"/>
                </g>
                <g transform="matrix(-0.270916,0,0,0.270916,295.689,166.964)">
                    <path d="M224.3,273L88.3,409C78.9,418.4 63.7,418.4 54.4,409L31.8,386.4C22.4,377 22.4,361.8 31.8,352.5L128.2,256.1L31.8,159.7C22.4,150.3 22.4,135.1 31.8,125.8L54.3,103C63.7,93.6 78.9,93.6 88.2,103L224.2,239C233.7,248.4 233.7,263.6 224.3,273Z" style="fill:rgb(63,207,142);fill-rule:nonzero;"/>
                </g>
            </g>
        </g>
        <g transform="matrix(0.89726,0,0,0.806607,-121.998,-97.4819)">
            <g transform="matrix(72,0,0,72,222.823,444.837)">
                <path d="M0.077,-0.652L0.224,-0.652L0.224,-0.124L0.482,-0.124L0.482,0L0.077,0L0.077,-0.652Z" style="fill:rgb(73,94,197);fill-rule:nonzero;"/>
            </g>
            <g transform="matrix(72,0,0,72,259.111,444.837)">
                <path d="M0.287,0.012C0.252,0.012 0.219,0.006 0.188,-0.006C0.157,-0.017 0.131,-0.034 0.108,-0.057C0.085,-0.079 0.068,-0.106 0.055,-0.138C0.042,-0.17 0.036,-0.207 0.036,-0.248C0.036,-0.288 0.043,-0.324 0.056,-0.357C0.069,-0.389 0.087,-0.416 0.109,-0.439C0.13,-0.461 0.155,-0.478 0.183,-0.49C0.211,-0.502 0.24,-0.508 0.27,-0.508C0.305,-0.508 0.336,-0.502 0.363,-0.49C0.389,-0.478 0.411,-0.461 0.429,-0.44C0.446,-0.419 0.459,-0.394 0.468,-0.365C0.477,-0.335 0.481,-0.304 0.481,-0.27C0.481,-0.257 0.48,-0.244 0.479,-0.232C0.478,-0.22 0.476,-0.211 0.475,-0.205L0.178,-0.205C0.185,-0.169 0.2,-0.142 0.223,-0.126C0.246,-0.109 0.274,-0.1 0.307,-0.1C0.342,-0.1 0.378,-0.111 0.414,-0.133L0.463,-0.044C0.438,-0.027 0.409,-0.013 0.379,-0.003C0.347,0.007 0.317,0.012 0.287,0.012ZM0.356,-0.302C0.356,-0.33 0.35,-0.353 0.337,-0.37C0.324,-0.387 0.303,-0.396 0.273,-0.396C0.25,-0.396 0.229,-0.388 0.212,-0.373C0.194,-0.358 0.182,-0.334 0.177,-0.302L0.356,-0.302Z" style="fill:rgb(73,94,197);fill-rule:nonzero;"/>
            </g>
            <g transform="matrix(72,0,0,72,295.615,444.837)">
                <path d="M0.19,0.012C0.167,0.012 0.147,0.008 0.129,0.001C0.11,-0.007 0.095,-0.018 0.082,-0.032C0.069,-0.045 0.059,-0.061 0.053,-0.079C0.046,-0.097 0.042,-0.117 0.042,-0.138C0.042,-0.19 0.064,-0.231 0.108,-0.26C0.152,-0.289 0.223,-0.309 0.321,-0.319C0.32,-0.341 0.313,-0.359 0.302,-0.372C0.29,-0.385 0.27,-0.391 0.243,-0.391C0.222,-0.391 0.2,-0.387 0.18,-0.379C0.159,-0.371 0.136,-0.36 0.112,-0.346L0.059,-0.443C0.091,-0.462 0.125,-0.478 0.16,-0.49C0.195,-0.502 0.232,-0.508 0.271,-0.508C0.335,-0.508 0.384,-0.49 0.418,-0.454C0.451,-0.417 0.468,-0.361 0.468,-0.284L0.468,0L0.348,0L0.338,-0.051L0.334,-0.051C0.313,-0.032 0.29,-0.017 0.267,-0.006C0.244,0.006 0.218,0.012 0.19,0.012ZM0.24,-0.102C0.257,-0.102 0.271,-0.106 0.283,-0.113C0.295,-0.12 0.308,-0.131 0.321,-0.144L0.321,-0.231C0.269,-0.224 0.233,-0.213 0.213,-0.199C0.193,-0.185 0.183,-0.168 0.183,-0.149C0.183,-0.133 0.188,-0.121 0.199,-0.114C0.209,-0.106 0.223,-0.102 0.24,-0.102Z" style="fill:rgb(73,94,197);fill-rule:nonzero;"/>
            </g>
            <g transform="matrix(72,0,0,72,333.559,444.837)">
                <path d="M0.065,-0.496L0.185,-0.496L0.195,-0.409L0.199,-0.409C0.217,-0.443 0.239,-0.468 0.264,-0.484C0.289,-0.5 0.315,-0.508 0.34,-0.508C0.354,-0.508 0.366,-0.507 0.375,-0.506C0.384,-0.504 0.392,-0.501 0.399,-0.498L0.375,-0.371C0.366,-0.374 0.357,-0.376 0.349,-0.377C0.341,-0.378 0.332,-0.379 0.321,-0.379C0.302,-0.379 0.283,-0.372 0.263,-0.359C0.242,-0.346 0.225,-0.322 0.212,-0.288L0.212,0L0.065,0L0.065,-0.496Z" style="fill:rgb(73,94,197);fill-rule:nonzero;"/>
            </g>
            <g transform="matrix(72,0,0,72,362.215,444.837)">
                <path d="M0.065,-0.496L0.185,-0.496L0.195,-0.433L0.199,-0.433C0.22,-0.453 0.244,-0.47 0.269,-0.486C0.294,-0.501 0.324,-0.508 0.358,-0.508C0.412,-0.508 0.451,-0.49 0.476,-0.455C0.5,-0.42 0.512,-0.371 0.512,-0.308L0.512,0L0.365,0L0.365,-0.289C0.365,-0.325 0.36,-0.35 0.351,-0.363C0.341,-0.376 0.325,-0.383 0.304,-0.383C0.285,-0.383 0.269,-0.379 0.256,-0.371C0.243,-0.362 0.228,-0.35 0.212,-0.335L0.212,0L0.065,0L0.065,-0.496Z" style="fill:rgb(73,94,197);fill-rule:nonzero;"/>
            </g>
            <g transform="matrix(72,0,0,72,403.399,444.837)">
                <path d="M0.014,-0.652L0.165,-0.652L0.21,-0.347C0.214,-0.313 0.218,-0.279 0.223,-0.245C0.228,-0.21 0.232,-0.176 0.236,-0.141L0.24,-0.141C0.247,-0.176 0.253,-0.21 0.26,-0.245C0.266,-0.279 0.272,-0.313 0.279,-0.347L0.349,-0.652L0.474,-0.652L0.544,-0.347C0.551,-0.314 0.557,-0.28 0.564,-0.246C0.57,-0.211 0.576,-0.176 0.583,-0.141L0.587,-0.141C0.592,-0.176 0.596,-0.211 0.601,-0.245C0.605,-0.279 0.609,-0.313 0.614,-0.347L0.659,-0.652L0.8,-0.652L0.684,0L0.499,0L0.435,-0.296C0.43,-0.321 0.425,-0.347 0.421,-0.373C0.416,-0.398 0.412,-0.423 0.409,-0.447L0.405,-0.447C0.401,-0.423 0.397,-0.398 0.393,-0.373C0.388,-0.347 0.383,-0.321 0.378,-0.296L0.317,0L0.135,0L0.014,-0.652Z" style="fill:rgb(73,94,197);fill-rule:nonzero;"/>
            </g>
            <g transform="matrix(72,0,0,72,461.935,444.837)">
                <path d="M0.287,0.012C0.252,0.012 0.219,0.006 0.188,-0.006C0.157,-0.017 0.131,-0.034 0.108,-0.057C0.085,-0.079 0.068,-0.106 0.055,-0.138C0.042,-0.17 0.036,-0.207 0.036,-0.248C0.036,-0.288 0.043,-0.324 0.056,-0.357C0.069,-0.389 0.087,-0.416 0.109,-0.439C0.13,-0.461 0.155,-0.478 0.183,-0.49C0.211,-0.502 0.24,-0.508 0.27,-0.508C0.305,-0.508 0.336,-0.502 0.363,-0.49C0.389,-0.478 0.411,-0.461 0.429,-0.44C0.446,-0.419 0.459,-0.394 0.468,-0.365C0.477,-0.335 0.481,-0.304 0.481,-0.27C0.481,-0.257 0.48,-0.244 0.479,-0.232C0.478,-0.22 0.476,-0.211 0.475,-0.205L0.178,-0.205C0.185,-0.169 0.2,-0.142 0.223,-0.126C0.246,-0.109 0.274,-0.1 0.307,-0.1C0.342,-0.1 0.378,-0.111 0.414,-0.133L0.463,-0.044C0.438,-0.027 0.409,-0.013 0.379,-0.003C0.347,0.007 0.317,0.012 0.287,0.012ZM0.356,-0.302C0.356,-0.33 0.35,-0.353 0.337,-0.37C0.324,-0.387 0.303,-0.396 0.273,-0.396C0.25,-0.396 0.229,-0.388 0.212,-0.373C0.194,-0.358 0.182,-0.334 0.177,-0.302L0.356,-0.302Z" style="fill:rgb(73,94,197);fill-rule:nonzero;"/>
            </g>
            <g transform="matrix(72,0,0,72,499.231,444.837)">
                <path d="M0.325,0.012C0.303,0.012 0.281,0.007 0.259,-0.005C0.236,-0.016 0.215,-0.032 0.196,-0.053L0.192,-0.053L0.18,0L0.065,0L0.065,-0.701L0.212,-0.701L0.212,-0.529L0.208,-0.453C0.227,-0.47 0.248,-0.484 0.271,-0.494C0.293,-0.503 0.316,-0.508 0.339,-0.508C0.369,-0.508 0.396,-0.502 0.42,-0.49C0.444,-0.478 0.464,-0.461 0.482,-0.44C0.499,-0.418 0.511,-0.392 0.521,-0.361C0.53,-0.329 0.534,-0.295 0.534,-0.257C0.534,-0.214 0.528,-0.176 0.517,-0.143C0.505,-0.11 0.489,-0.082 0.47,-0.059C0.45,-0.036 0.428,-0.018 0.403,-0.006C0.378,0.006 0.352,0.012 0.325,0.012ZM0.291,-0.108C0.316,-0.108 0.338,-0.12 0.356,-0.143C0.374,-0.166 0.383,-0.203 0.383,-0.254C0.383,-0.343 0.354,-0.388 0.297,-0.388C0.268,-0.388 0.239,-0.373 0.212,-0.343L0.212,-0.14C0.225,-0.128 0.239,-0.12 0.252,-0.115C0.265,-0.11 0.278,-0.108 0.291,-0.108Z" style="fill:rgb(73,94,197);fill-rule:nonzero;"/>
            </g>
            <g transform="matrix(72,0,0,72,540.487,444.837)">
                <path d="M0.077,-0.652L0.261,-0.652C0.311,-0.652 0.356,-0.646 0.396,-0.633C0.436,-0.62 0.47,-0.601 0.499,-0.575C0.528,-0.548 0.55,-0.515 0.565,-0.474C0.58,-0.433 0.588,-0.385 0.588,-0.329C0.588,-0.273 0.58,-0.224 0.565,-0.183C0.55,-0.142 0.528,-0.108 0.5,-0.081C0.472,-0.054 0.439,-0.033 0.4,-0.02C0.361,-0.007 0.317,0 0.269,0L0.077,0L0.077,-0.652ZM0.252,-0.119C0.28,-0.119 0.305,-0.123 0.328,-0.13C0.351,-0.137 0.37,-0.149 0.386,-0.166C0.402,-0.182 0.415,-0.203 0.424,-0.23C0.432,-0.257 0.437,-0.29 0.437,-0.329C0.437,-0.368 0.432,-0.4 0.424,-0.427C0.415,-0.453 0.402,-0.474 0.386,-0.49C0.37,-0.505 0.351,-0.516 0.328,-0.523C0.305,-0.53 0.28,-0.533 0.252,-0.533L0.224,-0.533L0.224,-0.119L0.252,-0.119Z" style="fill:rgb(73,94,197);fill-rule:nonzero;"/>
            </g>
            <g transform="matrix(72,0,0,72,586.207,444.837)">
                <path d="M0.287,0.012C0.252,0.012 0.219,0.006 0.188,-0.006C0.157,-0.017 0.131,-0.034 0.108,-0.057C0.085,-0.079 0.068,-0.106 0.055,-0.138C0.042,-0.17 0.036,-0.207 0.036,-0.248C0.036,-0.288 0.043,-0.324 0.056,-0.357C0.069,-0.389 0.087,-0.416 0.109,-0.439C0.13,-0.461 0.155,-0.478 0.183,-0.49C0.211,-0.502 0.24,-0.508 0.27,-0.508C0.305,-0.508 0.336,-0.502 0.363,-0.49C0.389,-0.478 0.411,-0.461 0.429,-0.44C0.446,-0.419 0.459,-0.394 0.468,-0.365C0.477,-0.335 0.481,-0.304 0.481,-0.27C0.481,-0.257 0.48,-0.244 0.479,-0.232C0.478,-0.22 0.476,-0.211 0.475,-0.205L0.178,-0.205C0.185,-0.169 0.2,-0.142 0.223,-0.126C0.246,-0.109 0.274,-0.1 0.307,-0.1C0.342,-0.1 0.378,-0.111 0.414,-0.133L0.463,-0.044C0.438,-0.027 0.409,-0.013 0.379,-0.003C0.347,0.007 0.317,0.012 0.287,0.012ZM0.356,-0.302C0.356,-0.33 0.35,-0.353 0.337,-0.37C0.324,-0.387 0.303,-0.396 0.273,-0.396C0.25,-0.396 0.229,-0.388 0.212,-0.373C0.194,-0.358 0.182,-0.334 0.177,-0.302L0.356,-0.302Z" style="fill:rgb(73,94,197);fill-rule:nonzero;"/>
            </g>
            <g transform="matrix(72,0,0,72,623.071,444.837)">
                <path d="M0.012,-0.496L0.16,-0.496L0.224,-0.262C0.231,-0.237 0.237,-0.212 0.244,-0.187C0.25,-0.161 0.256,-0.135 0.263,-0.109L0.267,-0.109C0.273,-0.135 0.279,-0.161 0.286,-0.187C0.292,-0.212 0.298,-0.237 0.305,-0.262L0.37,-0.496L0.511,-0.496L0.349,0L0.179,0L0.012,-0.496Z" style="fill:rgb(73,94,197);fill-rule:nonzero;"/>
            </g>
            <g transform="matrix(72,0,0,72,656.407,444.837)">
                <path d="M0.15,0.012C0.125,0.012 0.103,0.003 0.087,-0.015C0.07,-0.032 0.061,-0.054 0.061,-0.08C0.061,-0.107 0.07,-0.129 0.087,-0.147C0.103,-0.164 0.125,-0.173 0.15,-0.173C0.175,-0.173 0.197,-0.164 0.214,-0.147C0.231,-0.129 0.239,-0.107 0.239,-0.08C0.239,-0.054 0.231,-0.032 0.214,-0.015C0.197,0.003 0.175,0.012 0.15,0.012Z" style="fill:rgb(73,94,197);fill-rule:nonzero;"/>
            </g>
            <g transform="matrix(72,0,0,72,678.007,444.837)">
                <path d="M0.065,-0.496L0.212,-0.496L0.212,0L0.065,0L0.065,-0.496ZM0.138,-0.569C0.113,-0.569 0.093,-0.576 0.077,-0.591C0.061,-0.605 0.053,-0.623 0.053,-0.646C0.053,-0.669 0.061,-0.687 0.077,-0.701C0.093,-0.715 0.113,-0.722 0.138,-0.722C0.163,-0.722 0.184,-0.715 0.2,-0.701C0.215,-0.687 0.223,-0.669 0.223,-0.646C0.223,-0.623 0.215,-0.605 0.2,-0.591C0.184,-0.576 0.163,-0.569 0.138,-0.569Z" style="fill:rgb(73,94,197);fill-rule:nonzero;"/>
            </g>
            <g transform="matrix(72,0,0,72,697.879,444.837)">
                <path d="M0.278,0.012C0.247,0.012 0.216,0.006 0.187,-0.006C0.158,-0.017 0.132,-0.034 0.11,-0.056C0.087,-0.078 0.069,-0.105 0.056,-0.138C0.043,-0.17 0.036,-0.207 0.036,-0.248C0.036,-0.289 0.043,-0.326 0.056,-0.359C0.069,-0.391 0.087,-0.418 0.11,-0.44C0.132,-0.462 0.158,-0.479 0.187,-0.491C0.216,-0.502 0.247,-0.508 0.278,-0.508C0.309,-0.508 0.339,-0.502 0.369,-0.491C0.398,-0.479 0.423,-0.462 0.446,-0.44C0.468,-0.418 0.486,-0.391 0.499,-0.359C0.512,-0.326 0.519,-0.289 0.519,-0.248C0.519,-0.207 0.512,-0.17 0.499,-0.138C0.486,-0.105 0.468,-0.078 0.446,-0.056C0.423,-0.034 0.398,-0.017 0.369,-0.006C0.339,0.006 0.309,0.012 0.278,0.012ZM0.278,-0.107C0.308,-0.107 0.331,-0.12 0.346,-0.145C0.361,-0.17 0.369,-0.205 0.369,-0.248C0.369,-0.291 0.361,-0.326 0.346,-0.351C0.331,-0.376 0.308,-0.389 0.278,-0.389C0.247,-0.389 0.225,-0.376 0.21,-0.351C0.195,-0.326 0.187,-0.291 0.187,-0.248C0.187,-0.205 0.195,-0.17 0.21,-0.145C0.225,-0.12 0.247,-0.107 0.278,-0.107Z" style="fill:rgb(73,94,197);fill-rule:nonzero;"/>
            </g>
        </g>
    </g>
</svg>
