<?xml version="1.0" encoding="UTF-8" standalone="no"?>
<!DOCTYPE svg PUBLIC "-//W3C//DTD SVG 1.1//EN" "http://www.w3.org/Graphics/SVG/1.1/DTD/svg11.dtd">
<svg width="100%" height="100%" viewBox="0 0 125 125" version="1.1" xmlns="http://www.w3.org/2000/svg" xmlns:xlink="http://www.w3.org/1999/xlink" xml:space="preserve" xmlns:serif="http://www.serif.com/" style="fill-rule:evenodd;clip-rule:evenodd;stroke-linejoin:round;stroke-miterlimit:2;">
    <g transform="matrix(1,0,0,1,-233.597,-117.245)">
        <g id="Artboard2" transform="matrix(1,0,0,1,-7.17983,247.909)">
            <rect x="240.776" y="-130.663" width="124.284" height="124.284" style="fill:none;"/>
            <g transform="matrix(0.191843,0,0,0.191843,-235.943,-120.654)">
                <g transform="matrix(0.515387,-0.307308,0.317367,0.532256,2612.46,198.706)">
                    <path d="M497.9,142.1L451.8,188.2C447.1,192.9 439.5,192.9 434.8,188.2L323.8,77.2C319.1,72.5 319.1,64.9 323.8,60.2L369.9,14.1C388.6,-4.6 419,-4.6 437.8,14.1L497.9,74.2C516.7,92.9 516.7,123.3 497.9,142.1ZM284.2,99.8L21.6,362.4L0.4,483.9C-2.5,500.3 11.8,514.5 28.2,511.7L149.7,490.4L412.3,227.8C417,223.1 417,215.5 412.3,210.8L301.3,99.8C296.5,95.1 288.9,95.1 284.2,99.8ZM124.1,339.9C118.6,334.4 118.6,325.6 124.1,320.1L278.1,166.1C283.6,160.6 292.4,160.6 297.9,166.1C303.4,171.6 303.4,180.4 297.9,185.9L143.9,339.9C138.4,345.4 129.6,345.4 124.1,339.9ZM88,424L136,424L136,460.3L71.5,471.6L40.4,440.5L51.7,376L88,376L88,424Z" style="fill:rgb(73,94,197);fill-rule:nonzero;"/>
                </g>
                <g transform="matrix(0.681325,0,0,0.681325,2934.02,102.272)">
                    <path d="M224.3,273L88.3,409C78.9,418.4 63.7,418.4 54.4,409L31.8,386.4C22.4,377 22.4,361.8 31.8,352.5L128.2,256.1L31.8,159.7C22.4,150.3 22.4,135.1 31.8,125.8L54.3,103C63.7,93.6 78.9,93.6 88.2,103L224.2,239C233.7,248.4 233.7,263.6 224.3,273Z" style="fill:rgb(63,207,142);fill-rule:nonzero;"/>
                </g>
                <g transform="matrix(-0.681325,0,0,0.681325,2713.7,102.272)">
                    <path d="M224.3,273L88.3,409C78.9,418.4 63.7,418.4 54.4,409L31.8,386.4C22.4,377 22.4,361.8 31.8,352.5L128.2,256.1L31.8,159.7C22.4,150.3 22.4,135.1 31.8,125.8L54.3,103C63.7,93.6 78.9,93.6 88.2,103L224.2,239C233.7,248.4 233.7,263.6 224.3,273Z" style="fill:rgb(63,207,142);fill-rule:nonzero;"/>
                </g>
            </g>
        </g>
    </g>
</svg>
